<svg xmlns="http://www.w3.org/2000/svg" viewBox="0 0 540.29 312.39"><defs><style>.cls-1{fill:#fff;stroke:#231f20;stroke-miterlimit:10;stroke-width:11px;}</style></defs><title>Asset 1</title><g id="Layer_2" data-name="Layer 2"><g id="Layer_1-2" data-name="Layer 1"><circle class="cls-1" cx="238.4" cy="41.45" r="35.73"/><circle class="cls-1" cx="365.01" cy="41.23" r="35.73"/><polygon class="cls-1" points="529.2 88.66 441 88.66 359.43 195.98 441 303.3 529.2 303.3 447.63 195.98 529.2 88.66"/><path class="cls-1" d="M380,123.23a105.95,105.95,0,1,0-6.93,149.67A105.95,105.95,0,0,0,380,123.23ZM325.77,221a35.73,35.73,0,1,1,2.34-50.47A35.73,35.73,0,0,1,325.77,221Z"/><path class="cls-1" d="M217.35,130.5l-43.13,56.75L99.29,88.66H11.09l123.5,162.5,2.42,3.18,9.85,13,11.48,15.1,10.94,14.4,4.94,6.5,5.16-6.8,1-1.34,6.79-8.94,6-7.84,3.65-4.8,15.31-20.15,4.11-5.41,2.09-2.74L273.26,173"/><path class="cls-1" d="M152.65,158.87"/><path class="cls-1" d="M174.22,187.25"/></g></g></svg>